# xmcd
#
# Track frame offsets:
#	150
#	19985
#	36515
#	53178
#	74039
#	99938
#	124465
#	148855
#	165901
#	186311
#	204096
#	227919
#	258983
#
# Disc length: 4093 seconds
#
# Revision: 0
# Processed by: cddbd v1.5.1PL2 Copyright (c) Steve Scherf et al.
# Submitted via: dBpowerAMP V4.0
#
DISCID=c00ffb0d
DTITLE=Chick Willis - I Did It All
DYEAR=1900
DGENRE=Blues
TTITLE0=01 I Did It All (Radio)
TTITLE1=02 Easy Blues
TTITLE2=03 Married To Four Women
TTITLE3=04 I Like It Like That
TTITLE4=05 You Are Not the Woman
TTITLE5=06 She Got It
TTITLE6=07 I Love You Sweetheart
TTITLE7=08 I'm Coming to See You Baby
TTITLE8=09 Let Me Jack You Baby
TTITLE9=10 Little Old Man Blues
TTITLE10=11 You Can't Run
TTITLE11=12 I Did It All (Adult)
TTITLE12=DATA
EXTD=
EXTT0=
EXTT1=
EXTT2=
EXTT3=
EXTT4=
EXTT5=
EXTT6=
EXTT7=
EXTT8=
EXTT9=
EXTT10=
EXTT11=
EXTT12=
PLAYORDER=
